<mxfile host="app.diagrams.net" modified="2022-05-04T17:31:40.501Z" agent="5.0 (Windows NT 10.0; Win64; x64) AppleWebKit/537.36 (KHTML, like Gecko) Chrome/100.0.4896.127 Safari/537.36" etag="f6UmGS5a94KpZnQGAkP-" version="18.0.0" type="github">
  <diagram id="5Ytkm8MhDZnQsrt7q-9O" name="Page-1">
    <mxGraphModel dx="1422" dy="737" grid="1" gridSize="10" guides="1" tooltips="1" connect="1" arrows="1" fold="1" page="1" pageScale="1" pageWidth="827" pageHeight="1169" math="0" shadow="0">
      <root>
        <mxCell id="0" />
        <mxCell id="1" parent="0" />
        <mxCell id="LwTFHUdNUxdyQGi0Z6sh-4" style="edgeStyle=orthogonalEdgeStyle;rounded=0;orthogonalLoop=1;jettySize=auto;html=1;exitX=0.5;exitY=1;exitDx=0;exitDy=0;" edge="1" parent="1">
          <mxGeometry relative="1" as="geometry">
            <mxPoint x="120" y="200" as="targetPoint" />
            <mxPoint x="120" y="160" as="sourcePoint" />
          </mxGeometry>
        </mxCell>
        <mxCell id="LwTFHUdNUxdyQGi0Z6sh-2" value="Exercicio 1" style="text;html=1;align=center;verticalAlign=middle;resizable=0;points=[];autosize=1;strokeColor=none;fillColor=none;" vertex="1" parent="1">
          <mxGeometry x="80" y="10" width="70" height="20" as="geometry" />
        </mxCell>
        <mxCell id="LwTFHUdNUxdyQGi0Z6sh-5" value="INICIO" style="ellipse;whiteSpace=wrap;html=1;" vertex="1" parent="1">
          <mxGeometry x="55" y="80" width="120" height="80" as="geometry" />
        </mxCell>
        <mxCell id="LwTFHUdNUxdyQGi0Z6sh-6" value="Dizer um numero correto!" style="text;html=1;align=center;verticalAlign=middle;resizable=0;points=[];autosize=1;strokeColor=none;fillColor=none;" vertex="1" parent="1">
          <mxGeometry x="40" y="40" width="150" height="20" as="geometry" />
        </mxCell>
        <mxCell id="LwTFHUdNUxdyQGi0Z6sh-9" style="edgeStyle=orthogonalEdgeStyle;rounded=0;orthogonalLoop=1;jettySize=auto;html=1;exitX=0.5;exitY=1;exitDx=0;exitDy=0;entryX=0.5;entryY=0;entryDx=0;entryDy=0;" edge="1" parent="1" source="LwTFHUdNUxdyQGi0Z6sh-7">
          <mxGeometry relative="1" as="geometry">
            <mxPoint x="120" y="300" as="targetPoint" />
          </mxGeometry>
        </mxCell>
        <mxCell id="LwTFHUdNUxdyQGi0Z6sh-7" value="PERGUNTA: DIGA UM NUMERO ALEATORIO" style="rounded=0;whiteSpace=wrap;html=1;" vertex="1" parent="1">
          <mxGeometry x="60" y="200" width="120" height="60" as="geometry" />
        </mxCell>
        <mxCell id="LwTFHUdNUxdyQGi0Z6sh-17" style="edgeStyle=orthogonalEdgeStyle;rounded=0;orthogonalLoop=1;jettySize=auto;html=1;exitX=0.5;exitY=1;exitDx=0;exitDy=0;entryX=0.5;entryY=0;entryDx=0;entryDy=0;" edge="1" parent="1" source="LwTFHUdNUxdyQGi0Z6sh-10" target="LwTFHUdNUxdyQGi0Z6sh-12">
          <mxGeometry relative="1" as="geometry" />
        </mxCell>
        <mxCell id="LwTFHUdNUxdyQGi0Z6sh-10" value="RESPOSTA" style="shape=parallelogram;perimeter=parallelogramPerimeter;whiteSpace=wrap;html=1;fixedSize=1;" vertex="1" parent="1">
          <mxGeometry x="60" y="300" width="120" height="60" as="geometry" />
        </mxCell>
        <mxCell id="LwTFHUdNUxdyQGi0Z6sh-19" style="edgeStyle=orthogonalEdgeStyle;rounded=0;orthogonalLoop=1;jettySize=auto;html=1;entryX=0;entryY=0.75;entryDx=0;entryDy=0;" edge="1" parent="1" source="LwTFHUdNUxdyQGi0Z6sh-11" target="LwTFHUdNUxdyQGi0Z6sh-13">
          <mxGeometry relative="1" as="geometry" />
        </mxCell>
        <mxCell id="LwTFHUdNUxdyQGi0Z6sh-11" value="VOCE ACERTOU" style="shape=document;whiteSpace=wrap;html=1;boundedLbl=1;" vertex="1" parent="1">
          <mxGeometry x="55" y="470" width="120" height="80" as="geometry" />
        </mxCell>
        <mxCell id="LwTFHUdNUxdyQGi0Z6sh-18" style="edgeStyle=orthogonalEdgeStyle;rounded=0;orthogonalLoop=1;jettySize=auto;html=1;exitX=0.5;exitY=1;exitDx=0;exitDy=0;" edge="1" parent="1" source="LwTFHUdNUxdyQGi0Z6sh-12" target="LwTFHUdNUxdyQGi0Z6sh-11">
          <mxGeometry relative="1" as="geometry" />
        </mxCell>
        <mxCell id="LwTFHUdNUxdyQGi0Z6sh-12" value="FUNÇÃO SE = NUMERO" style="rounded=0;whiteSpace=wrap;html=1;" vertex="1" parent="1">
          <mxGeometry x="55" y="390" width="120" height="60" as="geometry" />
        </mxCell>
        <mxCell id="LwTFHUdNUxdyQGi0Z6sh-20" style="edgeStyle=orthogonalEdgeStyle;rounded=0;orthogonalLoop=1;jettySize=auto;html=1;exitX=1;exitY=0.5;exitDx=0;exitDy=0;entryX=1;entryY=0.5;entryDx=0;entryDy=0;" edge="1" parent="1" source="LwTFHUdNUxdyQGi0Z6sh-13" target="LwTFHUdNUxdyQGi0Z6sh-14">
          <mxGeometry relative="1" as="geometry" />
        </mxCell>
        <mxCell id="LwTFHUdNUxdyQGi0Z6sh-13" value="FUNÇÃO SE NÃO = NUMERO" style="rounded=0;whiteSpace=wrap;html=1;" vertex="1" parent="1">
          <mxGeometry x="60" y="580" width="120" height="60" as="geometry" />
        </mxCell>
        <mxCell id="LwTFHUdNUxdyQGi0Z6sh-21" style="edgeStyle=orthogonalEdgeStyle;rounded=0;orthogonalLoop=1;jettySize=auto;html=1;" edge="1" parent="1" source="LwTFHUdNUxdyQGi0Z6sh-14" target="LwTFHUdNUxdyQGi0Z6sh-15">
          <mxGeometry relative="1" as="geometry" />
        </mxCell>
        <mxCell id="LwTFHUdNUxdyQGi0Z6sh-14" value="VOCE ERROU" style="shape=document;whiteSpace=wrap;html=1;boundedLbl=1;" vertex="1" parent="1">
          <mxGeometry x="60" y="660" width="120" height="80" as="geometry" />
        </mxCell>
        <mxCell id="LwTFHUdNUxdyQGi0Z6sh-15" value="FIM" style="ellipse;whiteSpace=wrap;html=1;" vertex="1" parent="1">
          <mxGeometry x="60" y="780" width="120" height="80" as="geometry" />
        </mxCell>
        <mxCell id="LwTFHUdNUxdyQGi0Z6sh-22" value="Exercicio 2" style="text;html=1;align=center;verticalAlign=middle;resizable=0;points=[];autosize=1;strokeColor=none;fillColor=none;" vertex="1" parent="1">
          <mxGeometry x="330" y="10" width="70" height="20" as="geometry" />
        </mxCell>
        <mxCell id="LwTFHUdNUxdyQGi0Z6sh-23" value="Descobrir a idade pelo ano de nascimento" style="text;html=1;align=center;verticalAlign=middle;resizable=0;points=[];autosize=1;strokeColor=none;fillColor=none;" vertex="1" parent="1">
          <mxGeometry x="255" y="40" width="240" height="20" as="geometry" />
        </mxCell>
        <mxCell id="LwTFHUdNUxdyQGi0Z6sh-30" style="edgeStyle=orthogonalEdgeStyle;rounded=0;orthogonalLoop=1;jettySize=auto;html=1;exitX=0.5;exitY=1;exitDx=0;exitDy=0;entryX=0.5;entryY=0;entryDx=0;entryDy=0;" edge="1" parent="1" source="LwTFHUdNUxdyQGi0Z6sh-24" target="LwTFHUdNUxdyQGi0Z6sh-25">
          <mxGeometry relative="1" as="geometry" />
        </mxCell>
        <mxCell id="LwTFHUdNUxdyQGi0Z6sh-24" value="INICIO" style="ellipse;whiteSpace=wrap;html=1;" vertex="1" parent="1">
          <mxGeometry x="305" y="80" width="120" height="80" as="geometry" />
        </mxCell>
        <mxCell id="LwTFHUdNUxdyQGi0Z6sh-31" style="edgeStyle=orthogonalEdgeStyle;rounded=0;orthogonalLoop=1;jettySize=auto;html=1;exitX=0.5;exitY=1;exitDx=0;exitDy=0;entryX=0.5;entryY=0;entryDx=0;entryDy=0;" edge="1" parent="1" source="LwTFHUdNUxdyQGi0Z6sh-25" target="LwTFHUdNUxdyQGi0Z6sh-26">
          <mxGeometry relative="1" as="geometry" />
        </mxCell>
        <mxCell id="LwTFHUdNUxdyQGi0Z6sh-25" value="PERGUNTA: DIGA O ANO DE NASCIMENTO" style="rounded=0;whiteSpace=wrap;html=1;" vertex="1" parent="1">
          <mxGeometry x="305" y="200" width="120" height="60" as="geometry" />
        </mxCell>
        <mxCell id="LwTFHUdNUxdyQGi0Z6sh-32" style="edgeStyle=orthogonalEdgeStyle;rounded=0;orthogonalLoop=1;jettySize=auto;html=1;exitX=0.5;exitY=1;exitDx=0;exitDy=0;entryX=0.5;entryY=0;entryDx=0;entryDy=0;" edge="1" parent="1" source="LwTFHUdNUxdyQGi0Z6sh-26" target="LwTFHUdNUxdyQGi0Z6sh-27">
          <mxGeometry relative="1" as="geometry" />
        </mxCell>
        <mxCell id="LwTFHUdNUxdyQGi0Z6sh-26" value="RESPOSTA" style="shape=parallelogram;perimeter=parallelogramPerimeter;whiteSpace=wrap;html=1;fixedSize=1;" vertex="1" parent="1">
          <mxGeometry x="305" y="300" width="120" height="60" as="geometry" />
        </mxCell>
        <mxCell id="LwTFHUdNUxdyQGi0Z6sh-33" style="edgeStyle=orthogonalEdgeStyle;rounded=0;orthogonalLoop=1;jettySize=auto;html=1;exitX=0.5;exitY=1;exitDx=0;exitDy=0;entryX=0.5;entryY=0;entryDx=0;entryDy=0;" edge="1" parent="1" source="LwTFHUdNUxdyQGi0Z6sh-27" target="LwTFHUdNUxdyQGi0Z6sh-28">
          <mxGeometry relative="1" as="geometry" />
        </mxCell>
        <mxCell id="LwTFHUdNUxdyQGi0Z6sh-27" value="VAR = ANO ATUAL" style="rounded=0;whiteSpace=wrap;html=1;" vertex="1" parent="1">
          <mxGeometry x="305" y="390" width="120" height="60" as="geometry" />
        </mxCell>
        <mxCell id="LwTFHUdNUxdyQGi0Z6sh-35" style="edgeStyle=orthogonalEdgeStyle;rounded=0;orthogonalLoop=1;jettySize=auto;html=1;exitX=0.5;exitY=1;exitDx=0;exitDy=0;entryX=0.5;entryY=0;entryDx=0;entryDy=0;" edge="1" parent="1" source="LwTFHUdNUxdyQGi0Z6sh-28" target="LwTFHUdNUxdyQGi0Z6sh-29">
          <mxGeometry relative="1" as="geometry" />
        </mxCell>
        <mxCell id="LwTFHUdNUxdyQGi0Z6sh-28" value="VAR - RESPOSTA" style="rounded=0;whiteSpace=wrap;html=1;" vertex="1" parent="1">
          <mxGeometry x="305" y="470" width="120" height="60" as="geometry" />
        </mxCell>
        <mxCell id="LwTFHUdNUxdyQGi0Z6sh-36" style="edgeStyle=orthogonalEdgeStyle;rounded=0;orthogonalLoop=1;jettySize=auto;html=1;exitX=0;exitY=0.5;exitDx=0;exitDy=0;" edge="1" parent="1" source="LwTFHUdNUxdyQGi0Z6sh-29" target="LwTFHUdNUxdyQGi0Z6sh-34">
          <mxGeometry relative="1" as="geometry" />
        </mxCell>
        <mxCell id="LwTFHUdNUxdyQGi0Z6sh-29" value="RESPOSTA DIZENDO OS DIAS" style="shape=document;whiteSpace=wrap;html=1;boundedLbl=1;" vertex="1" parent="1">
          <mxGeometry x="305" y="560" width="120" height="80" as="geometry" />
        </mxCell>
        <mxCell id="LwTFHUdNUxdyQGi0Z6sh-34" value="FIM" style="ellipse;whiteSpace=wrap;html=1;" vertex="1" parent="1">
          <mxGeometry x="305" y="680" width="120" height="80" as="geometry" />
        </mxCell>
        <mxCell id="LwTFHUdNUxdyQGi0Z6sh-37" value="Exercicio 3" style="text;html=1;align=center;verticalAlign=middle;resizable=0;points=[];autosize=1;strokeColor=none;fillColor=none;" vertex="1" parent="1">
          <mxGeometry x="640" y="10" width="70" height="20" as="geometry" />
        </mxCell>
        <mxCell id="LwTFHUdNUxdyQGi0Z6sh-38" value="Dizer 2 numeros para somar, subtrair , multiplicar e dividir-" style="text;html=1;align=center;verticalAlign=middle;resizable=0;points=[];autosize=1;strokeColor=none;fillColor=none;" vertex="1" parent="1">
          <mxGeometry x="495" y="40" width="330" height="20" as="geometry" />
        </mxCell>
        <mxCell id="LwTFHUdNUxdyQGi0Z6sh-49" style="edgeStyle=orthogonalEdgeStyle;rounded=0;orthogonalLoop=1;jettySize=auto;html=1;exitX=0.5;exitY=1;exitDx=0;exitDy=0;entryX=0.5;entryY=0;entryDx=0;entryDy=0;" edge="1" parent="1" source="LwTFHUdNUxdyQGi0Z6sh-39" target="LwTFHUdNUxdyQGi0Z6sh-40">
          <mxGeometry relative="1" as="geometry" />
        </mxCell>
        <mxCell id="LwTFHUdNUxdyQGi0Z6sh-39" value="INICIO" style="ellipse;whiteSpace=wrap;html=1;" vertex="1" parent="1">
          <mxGeometry x="610" y="70" width="120" height="80" as="geometry" />
        </mxCell>
        <mxCell id="LwTFHUdNUxdyQGi0Z6sh-50" style="edgeStyle=orthogonalEdgeStyle;rounded=0;orthogonalLoop=1;jettySize=auto;html=1;exitX=0.5;exitY=1;exitDx=0;exitDy=0;entryX=0.5;entryY=0;entryDx=0;entryDy=0;" edge="1" parent="1" source="LwTFHUdNUxdyQGi0Z6sh-40" target="LwTFHUdNUxdyQGi0Z6sh-41">
          <mxGeometry relative="1" as="geometry" />
        </mxCell>
        <mxCell id="LwTFHUdNUxdyQGi0Z6sh-40" value="PERGUNTA: DIGA UM NUMERO" style="rounded=0;whiteSpace=wrap;html=1;" vertex="1" parent="1">
          <mxGeometry x="610" y="180" width="120" height="60" as="geometry" />
        </mxCell>
        <mxCell id="LwTFHUdNUxdyQGi0Z6sh-51" style="edgeStyle=orthogonalEdgeStyle;rounded=0;orthogonalLoop=1;jettySize=auto;html=1;entryX=0;entryY=0.75;entryDx=0;entryDy=0;" edge="1" parent="1" source="LwTFHUdNUxdyQGi0Z6sh-41" target="LwTFHUdNUxdyQGi0Z6sh-42">
          <mxGeometry relative="1" as="geometry" />
        </mxCell>
        <mxCell id="LwTFHUdNUxdyQGi0Z6sh-41" value="RESPOSTA" style="shape=parallelogram;perimeter=parallelogramPerimeter;whiteSpace=wrap;html=1;fixedSize=1;" vertex="1" parent="1">
          <mxGeometry x="610" y="280" width="120" height="60" as="geometry" />
        </mxCell>
        <mxCell id="LwTFHUdNUxdyQGi0Z6sh-42" value="DEFINIR VAR = A" style="rounded=0;whiteSpace=wrap;html=1;" vertex="1" parent="1">
          <mxGeometry x="605" y="370" width="120" height="60" as="geometry" />
        </mxCell>
        <mxCell id="LwTFHUdNUxdyQGi0Z6sh-52" style="edgeStyle=orthogonalEdgeStyle;rounded=0;orthogonalLoop=1;jettySize=auto;html=1;exitX=0.5;exitY=1;exitDx=0;exitDy=0;entryX=0.5;entryY=0;entryDx=0;entryDy=0;" edge="1" parent="1" source="LwTFHUdNUxdyQGi0Z6sh-43" target="LwTFHUdNUxdyQGi0Z6sh-44">
          <mxGeometry relative="1" as="geometry" />
        </mxCell>
        <mxCell id="LwTFHUdNUxdyQGi0Z6sh-43" value="PERGUNTA: DIGA UM NUMERO" style="rounded=0;whiteSpace=wrap;html=1;" vertex="1" parent="1">
          <mxGeometry x="605" y="450" width="120" height="60" as="geometry" />
        </mxCell>
        <mxCell id="LwTFHUdNUxdyQGi0Z6sh-56" style="edgeStyle=orthogonalEdgeStyle;rounded=0;orthogonalLoop=1;jettySize=auto;html=1;entryX=0;entryY=0.75;entryDx=0;entryDy=0;" edge="1" parent="1" source="LwTFHUdNUxdyQGi0Z6sh-44" target="LwTFHUdNUxdyQGi0Z6sh-54">
          <mxGeometry relative="1" as="geometry" />
        </mxCell>
        <mxCell id="LwTFHUdNUxdyQGi0Z6sh-44" value="RESPOSTA" style="shape=parallelogram;perimeter=parallelogramPerimeter;whiteSpace=wrap;html=1;fixedSize=1;" vertex="1" parent="1">
          <mxGeometry x="605" y="530" width="120" height="60" as="geometry" />
        </mxCell>
        <mxCell id="LwTFHUdNUxdyQGi0Z6sh-59" style="edgeStyle=orthogonalEdgeStyle;rounded=0;orthogonalLoop=1;jettySize=auto;html=1;exitX=0.5;exitY=1;exitDx=0;exitDy=0;" edge="1" parent="1" source="LwTFHUdNUxdyQGi0Z6sh-46" target="LwTFHUdNUxdyQGi0Z6sh-47">
          <mxGeometry relative="1" as="geometry" />
        </mxCell>
        <mxCell id="LwTFHUdNUxdyQGi0Z6sh-46" value="DEFINIR OPERADOR +-*/" style="rounded=0;whiteSpace=wrap;html=1;" vertex="1" parent="1">
          <mxGeometry x="605" y="750" width="120" height="60" as="geometry" />
        </mxCell>
        <mxCell id="LwTFHUdNUxdyQGi0Z6sh-60" style="edgeStyle=orthogonalEdgeStyle;rounded=0;orthogonalLoop=1;jettySize=auto;html=1;" edge="1" parent="1" source="LwTFHUdNUxdyQGi0Z6sh-47" target="LwTFHUdNUxdyQGi0Z6sh-48">
          <mxGeometry relative="1" as="geometry" />
        </mxCell>
        <mxCell id="LwTFHUdNUxdyQGi0Z6sh-47" value="RESPOSTA DIZENDO OS DIAS" style="shape=document;whiteSpace=wrap;html=1;boundedLbl=1;" vertex="1" parent="1">
          <mxGeometry x="600" y="840" width="120" height="80" as="geometry" />
        </mxCell>
        <mxCell id="LwTFHUdNUxdyQGi0Z6sh-48" value="FIM" style="ellipse;whiteSpace=wrap;html=1;" vertex="1" parent="1">
          <mxGeometry x="600" y="950" width="120" height="80" as="geometry" />
        </mxCell>
        <mxCell id="LwTFHUdNUxdyQGi0Z6sh-58" style="edgeStyle=orthogonalEdgeStyle;rounded=0;orthogonalLoop=1;jettySize=auto;html=1;exitX=0.5;exitY=1;exitDx=0;exitDy=0;entryX=0.5;entryY=0;entryDx=0;entryDy=0;" edge="1" parent="1" source="LwTFHUdNUxdyQGi0Z6sh-54" target="LwTFHUdNUxdyQGi0Z6sh-46">
          <mxGeometry relative="1" as="geometry" />
        </mxCell>
        <mxCell id="LwTFHUdNUxdyQGi0Z6sh-54" value="DEFINIR VAR = B" style="rounded=0;whiteSpace=wrap;html=1;" vertex="1" parent="1">
          <mxGeometry x="600" y="660" width="120" height="60" as="geometry" />
        </mxCell>
      </root>
    </mxGraphModel>
  </diagram>
</mxfile>
